<svg width="247" height="124" viewBox="0 0 247 124" fill="none" xmlns="http://www.w3.org/2000/svg">
<!-- <rect width="247" height="124" fill="#E5E5E5"/> -->
<circle cx="62" cy="62" r="62" fill="white"/>
<path d="M71.5075 97L57.4915 71.56H53.5555V97H37.1395V29.608H64.6915C70.0035 29.608 74.5155 30.536 78.2275 32.392C82.0035 34.248 84.8195 36.808 86.6755 40.072C88.5315 43.272 89.4595 46.856 89.4595 50.824C89.4595 55.304 88.1795 59.304 85.6195 62.824C83.1235 66.344 79.4115 68.84 74.4835 70.312L90.0355 97H71.5075ZM53.5555 59.944H63.7315C66.7395 59.944 68.9795 59.208 70.4515 57.736C71.9875 56.264 72.7555 54.184 72.7555 51.496C72.7555 48.936 71.9875 46.92 70.4515 45.448C68.9795 43.976 66.7395 43.24 63.7315 43.24H53.5555V59.944Z" fill="#1D3658"/>
<path d="M93.4833 64.8C93.4833 62.5067 93.9099 60.4933 94.7633 58.76C95.6433 57.0267 96.8299 55.6933 98.3233 54.76C99.8166 53.8267 101.483 53.36 103.323 53.36C104.897 53.36 106.27 53.68 107.443 54.32C108.643 54.96 109.563 55.8 110.203 56.84V53.68H117.043V76H110.203V72.84C109.537 73.88 108.603 74.72 107.403 75.36C106.23 76 104.857 76.32 103.283 76.32C101.47 76.32 99.8166 75.8533 98.3233 74.92C96.8299 73.96 95.6433 72.6133 94.7633 70.88C93.9099 69.12 93.4833 67.0933 93.4833 64.8ZM110.203 64.84C110.203 63.1333 109.723 61.7867 108.763 60.8C107.83 59.8133 106.683 59.32 105.323 59.32C103.963 59.32 102.803 59.8133 101.843 60.8C100.91 61.76 100.443 63.0933 100.443 64.8C100.443 66.5067 100.91 67.8667 101.843 68.88C102.803 69.8667 103.963 70.36 105.323 70.36C106.683 70.36 107.83 69.8667 108.763 68.88C109.723 67.8933 110.203 66.5467 110.203 64.84ZM144.792 53.68L130.792 86.6H123.432L128.552 75.24L119.472 53.68H127.112L132.272 67.64L137.392 53.68H144.792ZM175.745 53.44C178.518 53.44 180.718 54.28 182.345 55.96C183.998 57.64 184.825 59.9733 184.825 62.96V76H178.025V63.88C178.025 62.44 177.638 61.3333 176.865 60.56C176.118 59.76 175.078 59.36 173.745 59.36C172.412 59.36 171.358 59.76 170.585 60.56C169.838 61.3333 169.465 62.44 169.465 63.88V76H162.665V63.88C162.665 62.44 162.278 61.3333 161.505 60.56C160.758 59.76 159.718 59.36 158.385 59.36C157.052 59.36 155.998 59.76 155.225 60.56C154.478 61.3333 154.105 62.44 154.105 63.88V76H147.265V53.68H154.105V56.48C154.798 55.5467 155.705 54.8133 156.825 54.28C157.945 53.72 159.212 53.44 160.625 53.44C162.305 53.44 163.798 53.8 165.105 54.52C166.438 55.24 167.478 56.2667 168.225 57.6C168.998 56.3733 170.052 55.3733 171.385 54.6C172.718 53.8267 174.172 53.44 175.745 53.44ZM188.249 64.8C188.249 62.5067 188.676 60.4933 189.529 58.76C190.409 57.0267 191.596 55.6933 193.089 54.76C194.582 53.8267 196.249 53.36 198.089 53.36C199.662 53.36 201.036 53.68 202.209 54.32C203.409 54.96 204.329 55.8 204.969 56.84V53.68H211.809V76H204.969V72.84C204.302 73.88 203.369 74.72 202.169 75.36C200.996 76 199.622 76.32 198.049 76.32C196.236 76.32 194.582 75.8533 193.089 74.92C191.596 73.96 190.409 72.6133 189.529 70.88C188.676 69.12 188.249 67.0933 188.249 64.8ZM204.969 64.84C204.969 63.1333 204.489 61.7867 203.529 60.8C202.596 59.8133 201.449 59.32 200.089 59.32C198.729 59.32 197.569 59.8133 196.609 60.8C195.676 61.76 195.209 63.0933 195.209 64.8C195.209 66.5067 195.676 67.8667 196.609 68.88C197.569 69.8667 198.729 70.36 200.089 70.36C201.449 70.36 202.596 69.8667 203.529 68.88C204.489 67.8933 204.969 66.5467 204.969 64.84ZM223.597 57.4C224.397 56.1733 225.397 55.2133 226.597 54.52C227.797 53.8 229.131 53.44 230.597 53.44V60.68H228.717C227.011 60.68 225.731 61.0533 224.877 61.8C224.024 62.52 223.597 63.8 223.597 65.64V76H216.757V53.68H223.597V57.4ZM246.307 70.2V76H242.827C240.347 76 238.413 75.4 237.027 74.2C235.64 72.9733 234.947 70.9867 234.947 68.24V59.36H232.227V53.68H234.947V48.24H241.787V53.68H246.267V59.36H241.787V68.32C241.787 68.9867 241.947 69.4667 242.267 69.76C242.587 70.0533 243.12 70.2 243.867 70.2H246.307Z" fill="white"/>
</svg>
