<svg width="283" height="124" viewBox="0 0 283 124" fill="none" xmlns="http://www.w3.org/2000/svg">
<circle cx="62" cy="62" r="62" fill="#447A9C"/>
<path d="M36.2754 24.6406H64.3799C70.1423 24.6406 75.0938 25.5033 79.2344 27.2285C83.4095 28.9538 86.6185 31.5072 88.8613 34.8887C91.1042 38.2702 92.2256 42.4281 92.2256 47.3623C92.2256 51.3994 91.5355 54.8672 90.1553 57.7656C88.8096 60.6296 86.8945 63.0277 84.4102 64.96C81.9603 66.8577 79.0791 68.376 75.7666 69.5146L70.8496 72.1025H46.4199L46.3164 59.9912H64.4834C67.2093 59.9912 69.4694 59.5081 71.2637 58.542C73.0579 57.5758 74.4036 56.2301 75.3008 54.5049C76.2324 52.7796 76.6982 50.7783 76.6982 48.501C76.6982 46.0856 76.2497 43.998 75.3525 42.2383C74.4554 40.4785 73.0924 39.1328 71.2637 38.2012C69.4349 37.2695 67.1403 36.8037 64.3799 36.8037H51.8027V100H36.2754V24.6406ZM78.4062 100L61.2227 66.4092L77.6299 66.3057L95.0205 99.2754V100H78.4062Z" fill="white"/>
<path d="M93.6473 65.512C93.6473 62.728 94.1433 60.296 95.1353 58.216C96.1593 56.136 97.5353 54.536 99.2633 53.416C101.023 52.296 102.975 51.736 105.119 51.736C106.975 51.736 108.575 52.104 109.919 52.84C111.263 53.576 112.303 54.568 113.039 55.816V52.072H122.447V79H113.039V75.256C112.303 76.504 111.247 77.496 109.871 78.232C108.527 78.968 106.943 79.336 105.119 79.336C102.975 79.336 101.023 78.776 99.2633 77.656C97.5353 76.536 96.1593 74.936 95.1353 72.856C94.1433 70.744 93.6473 68.296 93.6473 65.512ZM113.039 65.512C113.039 63.784 112.559 62.424 111.599 61.432C110.671 60.44 109.519 59.944 108.143 59.944C106.735 59.944 105.567 60.44 104.639 61.432C103.711 62.392 103.247 63.752 103.247 65.512C103.247 67.24 103.711 68.616 104.639 69.64C105.567 70.632 106.735 71.128 108.143 71.128C109.519 71.128 110.671 70.632 111.599 69.64C112.559 68.648 113.039 67.272 113.039 65.512ZM157.28 52.072L140.192 91.816H129.968L136.4 77.848L125.36 52.072H135.824L141.488 67.336L146.96 52.072H157.28ZM195.405 51.832C198.797 51.832 201.453 52.856 203.373 54.904C205.325 56.952 206.301 59.752 206.301 63.304V79H196.893V64.552C196.893 63.112 196.493 61.992 195.693 61.192C194.893 60.392 193.805 59.992 192.429 59.992C191.053 59.992 189.965 60.392 189.165 61.192C188.365 61.992 187.965 63.112 187.965 64.552V79H178.557V64.552C178.557 63.112 178.157 61.992 177.357 61.192C176.589 60.392 175.517 59.992 174.141 59.992C172.733 59.992 171.629 60.392 170.829 61.192C170.029 61.992 169.629 63.112 169.629 64.552V79H160.221V52.072H169.629V55.624C170.461 54.472 171.533 53.56 172.845 52.888C174.189 52.184 175.725 51.832 177.453 51.832C179.437 51.832 181.197 52.264 182.733 53.128C184.301 53.992 185.533 55.208 186.429 56.776C187.389 55.304 188.653 54.12 190.221 53.224C191.789 52.296 193.517 51.832 195.405 51.832ZM210.4 65.512C210.4 62.728 210.896 60.296 211.888 58.216C212.912 56.136 214.288 54.536 216.016 53.416C217.776 52.296 219.728 51.736 221.872 51.736C223.728 51.736 225.328 52.104 226.672 52.84C228.016 53.576 229.056 54.568 229.792 55.816V52.072H239.2V79H229.792V75.256C229.056 76.504 228 77.496 226.624 78.232C225.28 78.968 223.696 79.336 221.872 79.336C219.728 79.336 217.776 78.776 216.016 77.656C214.288 76.536 212.912 74.936 211.888 72.856C210.896 70.744 210.4 68.296 210.4 65.512ZM229.792 65.512C229.792 63.784 229.312 62.424 228.352 61.432C227.424 60.44 226.272 59.944 224.896 59.944C223.488 59.944 222.32 60.44 221.392 61.432C220.464 62.392 220 63.752 220 65.512C220 67.24 220.464 68.616 221.392 69.64C222.32 70.632 223.488 71.128 224.896 71.128C226.272 71.128 227.424 70.632 228.352 69.64C229.312 68.648 229.792 67.272 229.792 65.512ZM254.449 56.824C255.505 55.288 256.785 54.072 258.289 53.176C259.793 52.28 261.409 51.832 263.137 51.832V61.864H260.497C258.449 61.864 256.929 62.264 255.937 63.064C254.945 63.864 254.449 65.256 254.449 67.24V79H245.041V52.072H254.449V56.824ZM282.878 70.984V79H278.798C271.918 79 268.478 75.592 268.478 68.776V59.896H265.166V52.072H268.478V45.544H277.934V52.072H282.83V59.896H277.934V68.92C277.934 69.656 278.094 70.184 278.414 70.504C278.766 70.824 279.342 70.984 280.142 70.984H282.878Z" fill="white"/>
</svg>
