<svg width="946" height="755" viewBox="0 0 946 755" fill="none" xmlns="http://www.w3.org/2000/svg">
<!-- <rect width="946" height="755" fill="#E5E5E5"/> -->
<circle cx="568.5" cy="377.5" r="377.5" fill="#A8DADC"/>
<path d="M422.281 480.847C480.588 574.209 403.896 551.59 267.095 551.59C265.908 503.008 276.076 422.623 284.843 373.88C299.05 294.884 340.655 250 340.655 250C340.655 250 408.389 398.646 422.281 480.847Z" fill="#E63946"/>
<path d="M788.788 251.592C726.114 370.357 709.466 723.5 709.466 723.5H419.597C419.597 714.093 419.01 702.847 417.933 690.151C416.855 677.623 415.308 663.677 413.389 648.678C394.39 500.683 338.317 250.541 338.317 250.541C338.317 250.541 457.643 184.663 573.345 184.326C705.549 183.937 788.788 251.592 788.788 251.592Z" fill="#457B9D"/>
<path d="M378.1 232.225L426.404 391.639L479.035 389.395L389.893 229.52L378.1 232.225Z" fill="#050505"/>
<path d="M577.86 625.881L417.933 690.151C416.855 677.623 415.308 663.677 413.389 648.678L499.899 588.097L577.86 625.881Z" fill="#050505"/>
<path d="M649.301 490.762L750.596 327.004V595.275L649.301 490.762Z" fill="#050505"/>
<path d="M428.26 363.755L536.724 386.071L431.926 392.11L428.26 363.755Z" fill="#050505"/>
<path d="M568.713 255.48C568.713 255.48 556.658 243.394 544.124 228.268C534.126 216.235 523.824 202.278 519.045 190.979C519.045 190.979 520.298 190.769 522.081 190.065C526.546 188.32 534.322 183.538 533.949 171.472C533.421 154.593 533.949 146.721 533.949 146.721L588.692 143.599L606.563 142.58C606.563 142.58 606.299 146.826 606.426 152.964C606.494 155.917 606.642 159.312 606.955 162.885C607.053 163.968 607.171 165.072 607.298 166.175C608.316 175.13 610.441 184.673 614.74 190.979C624.973 205.977 568.713 255.48 568.713 255.48Z" fill="#FEFAF9"/>
<path d="M606.954 166.039L528.181 208.489C528.181 208.489 522.804 195.499 522.08 190.065C526.545 188.32 534.321 183.538 533.948 171.472C533.42 154.593 533.948 146.721 533.948 146.721L588.69 143.599L606.562 142.58C606.562 142.58 606.298 146.826 606.425 152.964C606.494 155.917 606.641 162.465 606.954 166.039Z" fill="#050505"/>
<path d="M817.846 575.06C825.396 537.959 830.918 493.448 836.569 441.885C845.138 363.637 828.167 277.316 788.016 262.602C788.016 262.602 749.903 316.288 711.712 451.344L690.157 533.45L684.721 554.176C684.721 554.176 672.171 574.755 584.525 570.551C496.879 566.347 369.127 495.929 351.5 481.214C333.873 466.5 313.137 460.5 296 460.5C296 460.5 269.775 454.939 238.882 472.806C207.989 490.673 182.433 524.49 184 535C185.567 545.51 205.496 520.724 226.106 504.862C246.717 489 269.235 482.99 254.5 493.5L234.5 515.5L210.5 546.378H234.5L249.154 547.429L263.809 548.48L296 504.862C297.632 506.614 303.025 512 335 529.561C360.778 543.719 403.357 571.602 413.639 577.383C423.922 583.163 705.714 730.411 757.247 694.887C808.781 659.362 805.771 634.358 817.846 575.06Z" fill="white"/>
<path d="M620.615 74.6102C620.106 81.8833 619.559 88.2735 618.97 93.9385C615.141 131.323 609.784 136.641 602.675 148.276C594.488 161.666 578.496 175.067 559.968 174.646C541.45 174.226 525.458 144.503 520.386 135.296C515.822 127.014 515.323 90.7539 514.412 66.8011C514.314 64.1105 514.206 61.5776 514.089 59.2548C512.923 36.2375 530.913 4.29697 562.896 3.03574C586.693 2.10033 624.513 19.3581 620.615 74.6102Z" fill="#FEFAF9"/>
<path d="M837.341 430.875C831.69 482.438 831.462 540.271 815.633 581.983C779.546 558.818 722.569 527.967 690.928 522.439L712.483 440.334C750.675 305.278 788.788 251.592 788.788 251.592C828.939 266.306 845.91 352.626 837.341 430.875Z" fill="#E63946"/>
<path d="M504.795 191.193C504.795 191.193 509.776 184.901 514.998 183.563C520.221 182.225 526.277 187.758 526.277 187.758L568.652 255.48L542.661 289.428L504.795 194.136V191.193Z" fill="#E63946"/>
<path d="M612.115 185.128L568.653 255.48L600.765 288.027C600.765 288.027 625.658 195.939 624.31 187.33C624.31 187.33 615.337 179.991 612.115 185.128Z" fill="#E63946"/>
<path d="M615.454 119.467C615.454 119.467 627.906 113.964 627.939 103.923C627.99 88.8273 615.454 94.9895 615.454 94.9895V119.467Z" fill="#FEFAF9"/>
<path d="M620.615 74.6102C620.106 81.8832 619.559 88.2735 618.97 93.9385H609.579C609.579 93.9385 607.13 77.7422 607.13 73.5382C607.13 69.3341 598.807 67.663 598.807 67.663V42.4385C598.807 42.4385 577.915 50.8466 555.209 50.3316C536.581 49.9091 524.332 42.4595 524.332 42.4595L516.948 62.4604L514.412 66.8011C514.314 64.1105 514.206 61.5776 514.089 59.2548C512.923 36.2375 530.913 4.29697 562.896 3.03574C586.693 2.10033 624.513 19.3581 620.615 74.6102Z" fill="#050505"/>
<path d="M267.675 556.383C267.675 556.383 323.3 499.17 378.14 486.439" stroke="#FCFAFA" stroke-miterlimit="10"/>
<path d="M267.236 572.996C267.236 572.996 337.747 511.712 362.514 505.673" stroke="#FCFAFA" stroke-miterlimit="10"/>
<path d="M824.774 557.107C824.774 557.107 737.61 499.722 699.085 490.762" stroke="#FCFAFA" stroke-miterlimit="10"/>
<path d="M820.31 571.417C820.31 571.417 759.608 527.735 727.452 516.767" stroke="#FCFAFA" stroke-miterlimit="10"/>
<path d="M508.421 187.447L550.821 278.77" stroke="#FCFAFA" stroke-miterlimit="10"/>
<path d="M514.998 183.562L558.058 269.32" stroke="#FCFAFA" stroke-miterlimit="10"/>
<path d="M616.287 183.354L575.594 262.514" stroke="#FCFAFA" stroke-miterlimit="10"/>
<path d="M620.895 185.047L585.658 272.715" stroke="#FCFAFA" stroke-miterlimit="10"/>
<path d="M380.24 236.391C380.24 236.391 406.867 215.383 442.121 215.094" stroke="#050505" stroke-miterlimit="10"/>
<path d="M613.823 110.054C613.823 110.054 615.455 99.8935 623.289 100.945" stroke="#050505" stroke-miterlimit="10"/>
<path d="M551.937 105.286L547.231 123.893H557.676" stroke="#050505" stroke-miterlimit="10"/>
<path d="M395.332 562L145.832 554.5L0 267.084C7.33369 250.632 21.3899 260.229 27.5014 267.084L161.341 532.842C223.067 535.478 320.198 540 351 540L395.332 562Z" fill="#457B9D"/>
</svg>
